<?xml version="1.0" ?>
<!-- Uploaded to: SVG Repo, www.svgrepo.com, Generator: SVG Repo Mixer Tools -->
<svg width="800px" height="800px" viewBox="0 0 32 32" enable-background="new 0 0 32 32" version="1.1" xml:space="preserve" xmlns="http://www.w3.org/2000/svg" xmlns:xlink="http://www.w3.org/1999/xlink">
<g id="_x36_0"/>
<g id="_x35_9"/>
<g id="_x35_8"/>
<g id="_x35_7"/>
<g id="_x35_6"/>
<g id="_x35_5"/>
<g id="_x35_4"/>
<g id="_x35_3"/>
<g id="_x35_2"/>
<g id="_x35_1"/>
<g id="_x35_0"/>
<g id="_x34_9"/>
<g id="_x34_8"/>
<g id="_x34_7"/>
<g id="_x34_6"/>
<g id="_x34_5"/>
<g id="_x34_4"/>
<g id="_x34_3"/>
<g id="_x34_2"/>
<g id="_x34_1"/>
<g id="_x34_0"/>
<g id="_x33_9"/>
<g id="_x33_8"/>
<g id="_x33_7"/>
<g id="_x33_6"/>
<g id="_x33_5"/>
<g id="_x33_4"/>
<g id="_x33_3"/>
<g id="_x33_2"/>
<g id="_x33_1"/>
<g id="_x33_0"/>
<g id="_x32_9"/>
<g id="_x32_8"/>
<g id="_x32_7"/>
<g id="_x32_6"/>
<g id="_x32_5"/>
<g id="_x32_4_1_"/>
<g id="_x32_3"/>
<g id="_x32_2"/>
<g id="_x32_1"/>
<g id="_x32_0"/>
<g id="_x31_9"/>
<g id="_x31_8"/>
<g id="_x31_7"/>
<g id="_x31_6"/>
<g id="_x31_5">
<path d="M28.8901367,6.4511719l-4.8579102,7.7836914l0.9614258,8.6547852   c0.0336914,0.3017578-0.0717773,0.6025391-0.2866211,0.8173828l-2,2c-0.2270508,0.2265625-0.5498047,0.3330078-0.8652344,0.2802734   c-0.3168945-0.0507813-0.5898438-0.2504883-0.734375-0.5366211l-3.3862305-6.7109375l-0.5717773,0.5458984l1.7993164,5.3979492   c0.1748047,0.5239258-0.1083984,1.090332-0.6323242,1.2651367l-3,1C15.2114258,26.9838867,15.1044922,27.0004883,15,27.0004883   c-0.4189453,0-0.809082-0.2651367-0.9487305-0.684082c-0.1748047-0.5239258,0.1083984-1.090332,0.6323242-1.2651367   l2.0512695-0.6835938l-1.6835938-5.0512695c-0.1225586-0.3676758-0.0219727-0.7724609,0.2583008-1.0400391l2.0063477-1.9145508   c0.2294922-0.2182617,0.5507813-0.3149414,0.8603516-0.2617188c0.3120117,0.0537109,0.5800781,0.2519531,0.7226563,0.534668   l3.3710938,6.6806641l0.6831055-0.6826172l-0.9467773-8.5224609c-0.0249023-0.2236328,0.0263672-0.4492188,0.1455078-0.6396484   l5.0581055-8.1035156c0.0742188-0.1123047,0.0625-0.2290039-0.0112305-0.3027344   c-0.0742188-0.0737305-0.1899414-0.0869141-0.2773438-0.0273438l-8.4243164,4.8305664C18.3457031,9.9545898,18.1743164,10,18,10   H9.4140625l-0.6088867,0.6088867l6.5458984,2.4545898c0.3183594,0.1196289,0.5541992,0.3925781,0.6264648,0.7246094   c0.0717773,0.3325195-0.0297852,0.6787109-0.2705078,0.9189453l-2,2c-0.2275391,0.2280273-0.5493164,0.3330078-0.871582,0.2792969   L8,16.1806641v1.4052734l2,2l0.2929688-0.2929688c0.390625-0.390625,1.0234375-0.390625,1.4140625,0   s0.390625,1.0234375,0,1.4140625L11.4140625,21L12,21.5859375l0.2929688-0.2929688   c0.390625-0.390625,1.0234375-0.390625,1.4140625,0s0.390625,1.0234375,0,1.4140625l-1,1   C12.5117188,23.9023438,12.2558594,24,12,24s-0.5117188-0.0976563-0.7070313-0.2929688l-5-5   C6.1054688,18.5195313,6,18.2651367,6,18v-3c0-0.2939453,0.1293945-0.5732422,0.3535156-0.7631836   s0.5209961-0.2734375,0.8110352-0.2231445l5.4921875,0.9155273l0.5380859-0.5380859l-6.5458984-2.4545898   c-0.3183594-0.1196289-0.5541992-0.3925781-0.6264648-0.7246094c-0.0717773-0.3325195,0.0297852-0.6787109,0.2705078-0.9189453l2-2   C8.4804688,8.1054688,8.7348633,8,9,8h8.7338867l8.1357422-4.6625977c0.8188477-0.5483398,1.9970703-0.4326172,2.7431641,0.3129883   C29.3583984,4.3959961,29.4750977,5.5742188,28.8901367,6.4511719z M7.2929688,25.2929688l-2,2   c-0.390625,0.390625-0.390625,1.0234375,0,1.4140625C5.4882813,28.9023438,5.7441406,29,6,29   s0.5117188-0.0976563,0.7070313-0.2929688l2-2c0.390625-0.390625,0.390625-1.0234375,0-1.4140625   S7.6835938,24.9023438,7.2929688,25.2929688z M6,25c0.5523071,0,1-0.4477539,1-1c0-0.5523071-0.4476929-1-1-1s-1,0.4476929-1,1   C5,24.5522461,5.4476929,25,6,25z" fill="#4D4D4D"/>
</g>
<g id="_x31_4"/>
<g id="_x31_3"/>
<g id="_x31_2"/>
<g id="_x31_1"/>
<g id="_x31_0"/>
<g id="_x39_"/>
<g id="_x38_"/>
<g id="_x37_"/>
<g id="_x36_"/>
<g id="_x35_"/>
<g id="_x34_"/>
<g id="_x33_"/>
<g id="_x32_"/>
<g id="_x31_"/>
<g id="topic"/>
<g id="Guides"/>
</svg>