
<svg fill="#000000" width="22px" height="22px" viewBox="0 0 64 64" id="Layer_1" version="1.1" xml:space="preserve" xmlns="http://www.w3.org/2000/svg" xmlns:xlink="http://www.w3.org/1999/xlink">

<g>

<path d="M53.9,17.9l-20-11.3c-1.2-0.7-2.7-0.7-3.8,0l-20,11.3c-1.2,0.7-2,2-2,3.4V52c0,3.3,2.7,6,6,6h35.8c3.3,0,6-2.7,6-6V21.3   C55.9,19.9,55.1,18.6,53.9,17.9z M51.9,52c0,1.1-0.9,2-2,2H14.1c-1.1,0-2-0.9-2-2V21.3L32,10.1l19.9,11.3V52z"/>

<path d="M17.7,43.7c1.2,2.2,3.3,3.7,5.7,4.3c0.8,0.2,1.6,0.3,2.4,0.3c1.6,0,3.2-0.4,4.7-1.3l12.5-7.2c4.5-2.6,6-8.3,3.4-12.7   c-2.6-4.5-8.3-6-12.7-3.4L21.1,31C16.6,33.5,15.1,39.3,17.7,43.7z M35.6,27.2c0.8-0.5,1.8-0.7,2.7-0.7c1.8,0,3.6,1,4.6,2.7   c0.7,1.2,0.9,2.7,0.5,4c-0.4,1.4-1.3,2.5-2.5,3.2l-4.5,2.6l-5.3-9.2L35.6,27.2z M23.1,34.4l4.5-2.6l5.3,9.2l-4.5,2.6   c-1.2,0.7-2.7,0.9-4,0.5c-1.4-0.4-2.5-1.3-3.2-2.5c-0.7-1.2-0.9-2.7-0.5-4C21,36.3,21.9,35.1,23.1,34.4z"/>

</g>

</svg>