<?xml version="1.0" encoding="iso-8859-1"?>
<!-- Uploaded to: SVG Repo, www.svgrepo.com, Generator: SVG Repo Mixer Tools -->
<!DOCTYPE svg PUBLIC "-//W3C//DTD SVG 1.1//EN" "http://www.w3.org/Graphics/SVG/1.1/DTD/svg11.dtd">
<svg fill="#000000" version="1.1" id="Capa_1" xmlns="http://www.w3.org/2000/svg" xmlns:xlink="http://www.w3.org/1999/xlink" 
	 width="800px" height="800px" viewBox="0 0 525.938 525.938"
	 xml:space="preserve">
<g>
	<g>
		<path d="M525.316,46.349c-3.232-24.04-20.072-42.037-42.649-45.632C479.961,0.373,477.274,0,474.338,0H55.711
			c-0.01,0-0.019,0-0.029,0C24.977,0.01,0,24.585,0,54.793v419.422c0,29.002,24.47,51.723,55.702,51.723h418.627
			c30.39,0,51.608-21.266,51.608-51.713V54.794C525.938,51.847,525.612,49.112,525.316,46.349z M487.688,433.965
			c0,29.615-24.106,53.723-53.722,53.723h-4.781H91.972c-29.615,0-53.722-24.107-53.722-53.723V96.762v-4.781
			c0-29.625,24.107-53.732,53.722-53.732h341.993c29.615,0,53.723,24.107,53.723,53.722V433.965L487.688,433.965z"/>
		<path d="M433.965,47.812h-4.781H91.972c-24.356,0-44.16,19.804-44.16,44.16v341.993c0,24.355,19.804,44.16,44.16,44.16h341.993
			c24.356,0,44.16-19.805,44.16-44.16V96.762v-4.781C478.125,67.616,458.321,47.812,433.965,47.812z M315.562,449.438h-114.75
			c-5.279,0-9.562-4.285-9.562-9.562s4.284-9.562,9.562-9.562h114.75c5.278,0,9.562,4.285,9.562,9.562
			S320.841,449.438,315.562,449.438z M340.157,411.188h-5.47h-153h-3.31c-55.615-57.375-56.83-133.875-52.718-181.688h264.766
			C392.885,267.75,392.933,363.375,340.157,411.188z M397.092,166.416c-4.915,9.505-13.034,14.717-22.367,18.188l-9.964,16.208
			h-69.137l24.557-44.418c-2.562-9.62-1.702-19.383,3.213-28.888c10.51-20.292,35.62-27.884,55.923-17.394
			C399.598,120.611,407.592,146.124,397.092,166.416z"/>
		<polygon points="277.312,258.187 239.062,258.187 239.062,296.438 200.5,296.438 200.5,334.688 239.062,334.688 239.062,373.062 
			277.312,373.062 277.312,334.688 315.5,334.688 315.5,296.438 277.312,296.438 		"/>
	</g>
</g>
</svg>