
<svg width="22px" height="22px" viewBox="-3.5 0 64 64" version="1.1" xmlns="http://www.w3.org/2000/svg" xmlns:xlink="http://www.w3.org/1999/xlink" xmlns:sketch="http://www.bohemiancoding.com/sketch/ns">
    
    <title>Stethoscope</title>
    <desc>Created with Sketch.</desc>
    <defs>

</defs>
    <g id="Page-1" stroke="none" stroke-width="1" fill="none" fill-rule="evenodd" sketch:type="MSPage">
        <g id="Stethoscope" sketch:type="MSLayerGroup" transform="translate(2.000000, 1.000000)" stroke="#6B6C6E" stroke-width="2">
            <circle id="Oval" sketch:type="MSShapeGroup" cx="44" cy="52" r="10">

</circle>
            <circle id="Oval" sketch:type="MSShapeGroup" cx="44" cy="52" r="6">

</circle>
            <path d="M44.1,49 C45.7,49 47,50.3 47,51.9" id="Shape" sketch:type="MSShapeGroup">

</path>
            <path d="M7.7,3.2 L4.8,3.2 C1.8,6.3 -0.1,10.5 -0.1,15.2 C-0.1,24.6 7.5,34.2 16.8,34.2 C26.1,34.2 33.7,24.6 33.7,15.2 C33.7,10.5 31.8,6.3 28.7,3.2 L25.8,3.2" id="Shape" sketch:type="MSShapeGroup">

</path>
            <path d="M16.9,33.8 L16.9,46.8 C16.9,59 27.4,51.8 33.2,51.8" id="Shape" sketch:type="MSShapeGroup">

</path>
            <path d="M13.9,3 C13.9,4.6 12.6,6 10.9,6 C9.2,6 6.9,4.7 6.9,3 C6.9,1.3 9.2,0 10.9,0 C12.6,0 13.9,1.4 13.9,3 L13.9,3 Z" id="Shape" sketch:type="MSShapeGroup">

</path>
            <path d="M19.9,3 C19.9,1.3 21.2,0 22.9,0 C24.5,0 26.9,1.3 26.9,3 C26.9,4.6 24.6,6 22.9,6 C21.2,6 19.9,4.7 19.9,3 L19.9,3 Z" id="Shape" sketch:type="MSShapeGroup">

</path>
        </g>
    </g>
</svg>